<mxfile host="Electron" modified="2023-04-20T12:01:08.132Z" agent="Mozilla/5.0 (Macintosh; Intel Mac OS X 10_15_7) AppleWebKit/537.36 (KHTML, like Gecko) draw.io/21.1.2 Chrome/106.0.5249.199 Electron/21.4.3 Safari/537.36" etag="pyHddsuMiTJ6RpHaE5S_" version="21.1.2" type="device">
  <diagram name="Page-1" id="O5uBvAX4eoEhG9-NWiZ3">
    <mxGraphModel dx="794" dy="494" grid="1" gridSize="10" guides="1" tooltips="1" connect="1" arrows="1" fold="1" page="1" pageScale="1" pageWidth="827" pageHeight="1169" math="0" shadow="0">
      <root>
        <mxCell id="0" />
        <mxCell id="1" parent="0" />
        <mxCell id="5ukcD1NVXQ0pOEfuJebw-4" value="Service Definition &amp;amp; Service Binding&amp;nbsp;" style="rounded=1;whiteSpace=wrap;html=1;verticalAlign=top;fillColor=#f5f5f5;" parent="1" vertex="1">
          <mxGeometry x="20" y="210" width="560" height="100" as="geometry" />
        </mxCell>
        <mxCell id="5ukcD1NVXQ0pOEfuJebw-5" value="SAP Fiori UI" style="rounded=1;whiteSpace=wrap;html=1;" parent="1" vertex="1">
          <mxGeometry x="20" y="145" width="270" height="30" as="geometry" />
        </mxCell>
        <mxCell id="5ukcD1NVXQ0pOEfuJebw-6" value="Web APIs" style="rounded=1;whiteSpace=wrap;html=1;" parent="1" vertex="1">
          <mxGeometry x="310" y="145" width="270" height="30" as="geometry" />
        </mxCell>
        <mxCell id="5ukcD1NVXQ0pOEfuJebw-7" value="" style="endArrow=none;dashed=1;html=1;rounded=0;" parent="1" edge="1">
          <mxGeometry width="50" height="50" relative="1" as="geometry">
            <mxPoint x="20" y="330" as="sourcePoint" />
            <mxPoint x="760" y="330" as="targetPoint" />
          </mxGeometry>
        </mxCell>
        <mxCell id="5ukcD1NVXQ0pOEfuJebw-8" value="" style="endArrow=none;dashed=1;html=1;rounded=0;" parent="1" edge="1">
          <mxGeometry width="50" height="50" relative="1" as="geometry">
            <mxPoint x="20" y="190" as="sourcePoint" />
            <mxPoint x="760" y="191" as="targetPoint" />
          </mxGeometry>
        </mxCell>
        <mxCell id="5ukcD1NVXQ0pOEfuJebw-9" value="Data Modelling &amp;amp; Behavious Definition&amp;nbsp;" style="text;html=1;strokeColor=none;fillColor=none;align=left;verticalAlign=middle;whiteSpace=wrap;rounded=0;" parent="1" vertex="1">
          <mxGeometry x="610" y="500" width="120" height="30" as="geometry" />
        </mxCell>
        <mxCell id="5ukcD1NVXQ0pOEfuJebw-10" value="" style="endArrow=none;dashed=1;html=1;rounded=0;" parent="1" edge="1">
          <mxGeometry width="50" height="50" relative="1" as="geometry">
            <mxPoint x="600" y="720" as="sourcePoint" />
            <mxPoint x="600" y="140" as="targetPoint" />
          </mxGeometry>
        </mxCell>
        <mxCell id="5ukcD1NVXQ0pOEfuJebw-12" value="Business Service Provisioning" style="text;html=1;strokeColor=none;fillColor=none;align=left;verticalAlign=middle;whiteSpace=wrap;rounded=0;" parent="1" vertex="1">
          <mxGeometry x="610" y="245" width="120" height="30" as="geometry" />
        </mxCell>
        <mxCell id="5ukcD1NVXQ0pOEfuJebw-13" value="Service Consumption&amp;nbsp;" style="text;html=1;strokeColor=none;fillColor=none;align=left;verticalAlign=middle;whiteSpace=wrap;rounded=0;" parent="1" vertex="1">
          <mxGeometry x="610" y="145" width="120" height="30" as="geometry" />
        </mxCell>
        <mxCell id="5ukcD1NVXQ0pOEfuJebw-2" value="Datamodel" style="rounded=1;whiteSpace=wrap;html=1;verticalAlign=top;" parent="1" vertex="1">
          <mxGeometry x="20" y="480" width="560" height="230" as="geometry" />
        </mxCell>
        <mxCell id="5ukcD1NVXQ0pOEfuJebw-11" style="edgeStyle=orthogonalEdgeStyle;rounded=0;orthogonalLoop=1;jettySize=auto;html=1;exitX=0.5;exitY=1;exitDx=0;exitDy=0;" parent="1" source="5ukcD1NVXQ0pOEfuJebw-2" target="5ukcD1NVXQ0pOEfuJebw-2" edge="1">
          <mxGeometry relative="1" as="geometry" />
        </mxCell>
        <mxCell id="xe2K_mK-dfjaz_KrOQmi-5" value="CDS-Views" style="rounded=1;whiteSpace=wrap;html=1;verticalAlign=top;fillColor=#f5f5f5;fontColor=#333333;strokeColor=#666666;" parent="1" vertex="1">
          <mxGeometry x="40" y="510" width="520" height="110" as="geometry" />
        </mxCell>
        <mxCell id="xe2K_mK-dfjaz_KrOQmi-10" value="Z_I_Rating" style="rounded=0;whiteSpace=wrap;html=1;" parent="1" vertex="1">
          <mxGeometry x="56.77" y="585" width="165" height="30" as="geometry" />
        </mxCell>
        <mxCell id="xe2K_mK-dfjaz_KrOQmi-11" value="Z_I_Product" style="rounded=0;whiteSpace=wrap;html=1;" parent="1" vertex="1">
          <mxGeometry x="256" y="585" width="165" height="30" as="geometry" />
        </mxCell>
        <mxCell id="xe2K_mK-dfjaz_KrOQmi-3" value="Database Tables" style="rounded=1;whiteSpace=wrap;html=1;verticalAlign=top;fillColor=#f5f5f5;fontColor=#333333;strokeColor=#666666;" parent="1" vertex="1">
          <mxGeometry x="40" y="627" width="520" height="60" as="geometry" />
        </mxCell>
        <mxCell id="xe2K_mK-dfjaz_KrOQmi-1" value="ZRATING" style="rounded=0;whiteSpace=wrap;html=1;" parent="1" vertex="1">
          <mxGeometry x="56.76999999999998" y="652" width="223.23" height="30" as="geometry" />
        </mxCell>
        <mxCell id="xe2K_mK-dfjaz_KrOQmi-2" value="ZPRODUCT" style="rounded=0;whiteSpace=wrap;html=1;" parent="1" vertex="1">
          <mxGeometry x="320" y="652" width="223.23" height="30" as="geometry" />
        </mxCell>
        <mxCell id="VNNXP6cLwB1R3znldGeC-4" value="Z_C_Rating_M" style="rounded=0;whiteSpace=wrap;html=1;" parent="1" vertex="1">
          <mxGeometry x="56.77" y="540" width="165" height="30" as="geometry" />
        </mxCell>
        <mxCell id="VNNXP6cLwB1R3znldGeC-5" value="Z_C_Product_M" style="rounded=0;whiteSpace=wrap;html=1;" parent="1" vertex="1">
          <mxGeometry x="256" y="540" width="165" height="31" as="geometry" />
        </mxCell>
        <mxCell id="VNNXP6cLwB1R3znldGeC-6" value="" style="endArrow=none;dashed=1;html=1;rounded=0;" parent="1" edge="1">
          <mxGeometry width="50" height="50" relative="1" as="geometry">
            <mxPoint x="53.230000000000004" y="577" as="sourcePoint" />
            <mxPoint x="430" y="577" as="targetPoint" />
          </mxGeometry>
        </mxCell>
        <mxCell id="rn0BBqEab4Qx2TsuMj5V-3" value="" style="group" parent="1" vertex="1" connectable="0">
          <mxGeometry x="20" y="350" width="560" height="110" as="geometry" />
        </mxCell>
        <mxCell id="5ukcD1NVXQ0pOEfuJebw-1" value="Business Objects&lt;br&gt;" style="rounded=1;whiteSpace=wrap;html=1;verticalAlign=top;fillColor=#f5f5f5;" parent="rn0BBqEab4Qx2TsuMj5V-3" vertex="1">
          <mxGeometry width="560" height="110" as="geometry" />
        </mxCell>
        <mxCell id="rn0BBqEab4Qx2TsuMj5V-1" value="Z_I_Rating" style="rounded=0;whiteSpace=wrap;html=1;" parent="rn0BBqEab4Qx2TsuMj5V-3" vertex="1">
          <mxGeometry x="36.77" y="70" width="363.23" height="30" as="geometry" />
        </mxCell>
        <mxCell id="rn0BBqEab4Qx2TsuMj5V-2" value="Z_C_Rating_M" style="rounded=0;whiteSpace=wrap;html=1;" parent="rn0BBqEab4Qx2TsuMj5V-3" vertex="1">
          <mxGeometry x="36.77" y="30" width="363.23" height="30" as="geometry" />
        </mxCell>
        <mxCell id="rn0BBqEab4Qx2TsuMj5V-11" value="" style="endArrow=none;dashed=1;html=1;rounded=0;entryX=0.75;entryY=0;entryDx=0;entryDy=0;exitX=0.75;exitY=1;exitDx=0;exitDy=0;" parent="rn0BBqEab4Qx2TsuMj5V-3" edge="1">
          <mxGeometry width="50" height="50" relative="1" as="geometry">
            <mxPoint x="410" y="110" as="sourcePoint" />
            <mxPoint x="410" as="targetPoint" />
          </mxGeometry>
        </mxCell>
        <mxCell id="rn0BBqEab4Qx2TsuMj5V-14" value="ABAP Classes" style="text;html=1;strokeColor=none;fillColor=none;align=center;verticalAlign=middle;whiteSpace=wrap;rounded=0;" parent="rn0BBqEab4Qx2TsuMj5V-3" vertex="1">
          <mxGeometry x="440" width="100" height="30" as="geometry" />
        </mxCell>
        <mxCell id="rn0BBqEab4Qx2TsuMj5V-13" value="ZBP_I_Rating" style="rounded=0;whiteSpace=wrap;html=1;" parent="rn0BBqEab4Qx2TsuMj5V-3" vertex="1">
          <mxGeometry x="423.23" y="70" width="116.77" height="30" as="geometry" />
        </mxCell>
        <mxCell id="rn0BBqEab4Qx2TsuMj5V-8" value="Z_S_Rating_M" style="rounded=0;whiteSpace=wrap;html=1;" parent="1" vertex="1">
          <mxGeometry x="56.77000000000001" y="272" width="493.23" height="30" as="geometry" />
        </mxCell>
        <mxCell id="rn0BBqEab4Qx2TsuMj5V-9" value="Z_B_Rating_M_V2" style="rounded=0;whiteSpace=wrap;html=1;" parent="1" vertex="1">
          <mxGeometry x="56.77000000000001" y="234" width="493.23" height="30" as="geometry" />
        </mxCell>
        <mxCell id="rn0BBqEab4Qx2TsuMj5V-12" value="" style="endArrow=none;dashed=1;html=1;rounded=0;entryX=0.75;entryY=0;entryDx=0;entryDy=0;exitX=0.75;exitY=1;exitDx=0;exitDy=0;" parent="1" source="xe2K_mK-dfjaz_KrOQmi-5" target="xe2K_mK-dfjaz_KrOQmi-5" edge="1">
          <mxGeometry width="50" height="50" relative="1" as="geometry">
            <mxPoint x="450" y="470" as="sourcePoint" />
            <mxPoint x="450" y="360" as="targetPoint" />
          </mxGeometry>
        </mxCell>
        <mxCell id="rn0BBqEab4Qx2TsuMj5V-10" value="ZCL_VE_&lt;br&gt;AVERAGE_RATING" style="rounded=0;whiteSpace=wrap;html=1;" parent="1" vertex="1">
          <mxGeometry x="440" y="540" width="110" height="30" as="geometry" />
        </mxCell>
        <mxCell id="rn0BBqEab4Qx2TsuMj5V-22" value="ABAP Classes" style="text;html=1;strokeColor=none;fillColor=none;align=center;verticalAlign=middle;whiteSpace=wrap;rounded=0;" parent="1" vertex="1">
          <mxGeometry x="443.23" y="510" width="100" height="30" as="geometry" />
        </mxCell>
      </root>
    </mxGraphModel>
  </diagram>
</mxfile>
